<svg width="16" height="18" viewBox="0 0 16 18" fill="none" xmlns="http://www.w3.org/2000/svg">
    <path fill-rule="evenodd" clip-rule="evenodd" d="M7.99996 10.5882C10.5247 10.5882 12.5714 7.82665 12.5714 5.04202C12.5714 2.25739 10.5247 0 7.99996 0C5.47523 0 3.42853 2.25739 3.42853 5.04202C3.42853 7.82665 5.47523 10.5882 7.99996 10.5882Z" fill="#468CE3"/>
    <path fill-rule="evenodd" clip-rule="evenodd" d="M0 14.5C0 12.9096 1 11.3684 3 11.3684C4.39889 11.3488 6.2573 12.1765 7.97066 12.1765C9.69942 12.1765 11.6404 11.3684 13 11.3684C15 11.3684 16 12.9096 16 14.5C16 16.5 14.5 18 11.6634 18C6.92066 18 8.25603 18 4.36713 18C1.41803 18 0 16.3947 0 14.5Z" fill="#468CE3"/>
</svg>
