<svg width="18" height="19" viewBox="0 0 18 19" fill="none" xmlns="http://www.w3.org/2000/svg">
    <path fill-rule="evenodd" clip-rule="evenodd" d="M15.0571 17.3757C15.0571 18.0083 14.3574 18.3906 13.8252 18.0491L10.3091 15.7939C10.2065 15.798 10.1035 15.7999 10 15.7999H8C3.69238 15.7999 0.200195 12.3077 0.200195 8C0.200195 3.69214 3.69238 0.199951 8 0.199951H10C14.3081 0.199951 17.8003 3.69214 17.8003 8C17.8003 10.3195 16.7803 12.4714 15.0571 13.939V17.3757ZM5.59131 5.53333H12.4091C12.6987 5.53333 12.9335 5.7124 12.9335 5.93335V6.73334C12.9335 6.95422 12.6987 7.1333 12.4091 7.1333H5.59131C5.3017 7.1333 5.06689 6.95422 5.06689 6.73334V5.93335C5.06689 5.7124 5.3017 5.53333 5.59131 5.53333ZM12.4091 9H5.59131C5.3017 9 5.06689 9.17908 5.06689 9.40002V10.2C5.06689 10.4209 5.3017 10.6 5.59131 10.6H12.4091C12.6987 10.6 12.9335 10.4209 12.9335 10.2V9.40002C12.9335 9.17908 12.6987 9 12.4091 9Z" fill="#468CE3"/>
</svg>
