<svg width="14" height="19" viewBox="0 0 14 19" fill="none" xmlns="http://www.w3.org/2000/svg">
    <path fill-rule="evenodd" clip-rule="evenodd" d="M3.90002 3.09998V1.20001C3.90002 0.537231 4.43726 0 5.09998 0H8.9469C9.60974 0 10.147 0.537231 10.147 1.20001V3.09998H13.6C13.8209 3.09998 14 3.27905 14 3.5V4.29999C14 4.52087 13.8209 4.69995 13.6 4.69995H0.400024C0.179077 4.69995 0 4.52087 0 4.29999V3.5C0 3.27905 0.179077 3.09998 0.400024 3.09998H3.90002ZM5.5 3.09998V1.59998H8.547V3.09998H5.5Z" transform="translate(0 0.699951)" fill="#468CE3"/>
    <path d="M1.03613 6.73322C1.01672 6.5 1.20068 6.29999 1.43469 6.29999H12.5653C12.7993 6.29999 12.9833 6.5 12.9639 6.73322L12.1069 17.0162C12.0465 17.7419 11.4399 18.3 10.7118 18.3H3.28821C2.56006 18.3 1.95349 17.7419 1.89307 17.0162L1.03613 6.73322Z" transform="translate(0 0.699951)" fill="#468CE3"/>
</svg>
